<svg id="visual" viewBox="0 0 1920 1080" width="1920" height="1080" xmlns="http://www.w3.org/2000/svg" xmlns:xlink="http://www.w3.org/1999/xlink" version="1.1"><rect width="1920" height="1080" fill="#0f172a"></rect><g><g transform="translate(1754 271)"><path d="M0 -157L135.9 -78.5L135.9 78.5L0 157L-135.9 78.5L-135.9 -78.5Z" stroke="#2966a6" fill="none" stroke-width="2"></path></g><g transform="translate(635 761)"><path d="M0 -127L110 -63.5L110 63.5L0 127L-110 63.5L-110 -63.5Z" stroke="#2966a6" fill="none" stroke-width="2"></path></g><g transform="translate(1138 907)"><path d="M0 -151L130.8 -75.5L130.8 75.5L0 151L-130.8 75.5L-130.8 -75.5Z" stroke="#2966a6" fill="none" stroke-width="2"></path></g><g transform="translate(513 314)"><path d="M0 -79L68.4 -39.5L68.4 39.5L0 79L-68.4 39.5L-68.4 -39.5Z" stroke="#2966a6" fill="none" stroke-width="2"></path></g><g transform="translate(1289 462)"><path d="M0 -101L87.5 -50.5L87.5 50.5L0 101L-87.5 50.5L-87.5 -50.5Z" stroke="#2966a6" fill="none" stroke-width="2"></path></g><g transform="translate(1069 228)"><path d="M0 -122L105.7 -61L105.7 61L0 122L-105.7 61L-105.7 -61Z" stroke="#2966a6" fill="none" stroke-width="2"></path></g><g transform="translate(178 251)"><path d="M0 -78L67.5 -39L67.5 39L0 78L-67.5 39L-67.5 -39Z" stroke="#2966a6" fill="none" stroke-width="2"></path></g><g transform="translate(893 514)"><path d="M0 -147L127.3 -73.5L127.3 73.5L0 147L-127.3 73.5L-127.3 -73.5Z" stroke="#2966a6" fill="none" stroke-width="2"></path></g><g transform="translate(252 649)"><path d="M0 -115L99.6 -57.5L99.6 57.5L0 115L-99.6 57.5L-99.6 -57.5Z" stroke="#2966a6" fill="none" stroke-width="2"></path></g><g transform="translate(1706 863)"><path d="M0 -85L73.6 -42.5L73.6 42.5L0 85L-73.6 42.5L-73.6 -42.5Z" stroke="#2966a6" fill="none" stroke-width="2"></path></g><g transform="translate(1430 182)"><path d="M0 -91L78.8 -45.5L78.8 45.5L0 91L-78.8 45.5L-78.8 -45.5Z" stroke="#2966a6" fill="none" stroke-width="2"></path></g><g transform="translate(1586 569)"><path d="M0 -80L69.3 -40L69.3 40L0 80L-69.3 40L-69.3 -40Z" stroke="#2966a6" fill="none" stroke-width="2"></path></g></g></svg>